<svg xmlns="http://www.w3.org/2000/svg" width="1920" height="1080" fill="none" viewBox="0 0 1920 1080">
  <g class="Login">
    <g class="Base">
      <path fill="#5c3375" d="M0 0h1920v1080H0z" class="base"/>
      <path fill="#725785" d="M519.297 391.16C467.332 617.028 43.447 580.652-162 534.23V0h1699.47c40.28 4.312 132.03 52.966 176.74 213.083 55.9 200.146-392.76-100.453-552.14 51.749C1002.7 417.034 584.255 108.825 519.297 391.16Z" class="Vector 5"/>
      <path fill="#370159" d="M336.747 386.4C55.375 426.72-90.323 597.12-128 677.28V930h2107V-150c-23.96 34.56-106.45 89.712-244.72 33.84-172.84-69.84-205.21 251.28-453.22 259.92-248.02 8.64-113.04 352.08-313.31 478.8C767.475 749.28 688.462 336 336.747 386.4Z" class="Vector 4"/>
      <path fill="#744491" fill-opacity=".6" d="M402.484 585.99C135.801 614.102-2.29 732.909-38 788.798V965h1997V212c-22.71 24.096-100.89 62.549-231.94 23.594-163.82-48.694-194.5 175.198-429.57 181.222-235.06 6.024-107.13 245.478-296.95 333.83C810.725 838.998 735.837 550.85 402.484 585.99Z" class="Vector 3"/>
      <path fill="#9365b0" d="M423.5 702.5C167.1 730.5 34.333 848.833 0 904.5V1080h1920V330c-21.83 24-97 62.3-223 23.5C1539.5 305 1510 528 1284 534s-103 244.5-285.5 332.5-254.5-199-575-164Z" class="Vector 1"/>
      <g class="Vector 2">
        <path fill="#60009c" d="M436.514 763.99C172.235 792.102 35.388 910.909 0 966.798V1143h1979V390c-22.5 24.096-99.98 62.549-229.85 23.594-162.34-48.694-192.75 175.198-425.69 181.222-232.95 6.024-106.17 245.478-294.28 333.83C841.075 1017 766.862 728.85 436.514 763.99Z"/>
        <path fill="#60009c" d="M436.514 763.99C172.235 792.102 35.388 910.909 0 966.798V1143h1979V390c-22.5 24.096-99.98 62.549-229.85 23.594-162.34-48.694-192.75 175.198-425.69 181.222-232.95 6.024-106.17 245.478-294.28 333.83C841.075 1017 766.862 728.85 436.514 763.99Z"/>
        <path fill="#60009c" d="M436.514 763.99C172.235 792.102 35.388 910.909 0 966.798V1143h1979V390c-22.5 24.096-99.98 62.549-229.85 23.594-162.34-48.694-192.75 175.198-425.69 181.222-232.95 6.024-106.17 245.478-294.28 333.83C841.075 1017 766.862 728.85 436.514 763.99Z"/>
      </g>
      <path fill="#6e3491" d="M395.16 196.611C365.019 310.141 119.161 291.857 0 268.523V0h985.709c23.361 2.168 76.581 26.623 102.511 107.103 32.42 100.601-227.806-50.491-320.243 26.011-92.438 76.503-335.141-78.415-372.817 63.497Z" class="Vector 6"/>
      <path fill="#4e3882" d="M391.398 816.144C344.43 789.185 110.896 910.97 0 975.232V1217l1916.87-11.36V648.434c9.3-8.882 3.33-34.717-94.91-67.005-122.8-40.36-201.08 98.353-296 67.005-94.91-31.347-198.63 194.747-318.99 241.768-96.28 37.617-172.21 131.918-198.14 174.368-66.051-20.11-209.89-80.482-256.857-161.045-58.71-100.704-301.866-53.683-360.575-87.381Z" class="Vector 7"/>
    </g>
  </g>
</svg>